<svg width="25" height="40" viewBox="0 0 25 40" fill="none" xmlns="http://www.w3.org/2000/svg">
<path d="M20.3869 0.478268C19.8837 0.477715 19.3854 0.574028 18.9206 0.761681C18.4558 0.949333 18.0336 1.22462 17.6784 1.57172L1.42672 17.4052C1.0709 17.7516 0.788632 18.1629 0.596052 18.6157C0.403472 19.0684 0.304352 19.5537 0.304352 20.0437C0.304352 20.5338 0.403472 21.0191 0.596052 21.4718C0.788632 21.9246 1.0709 22.3359 1.42672 22.6823L17.6783 38.5158C18.3966 39.2156 19.3709 39.6087 20.3869 39.6087C21.4028 39.6087 22.3771 39.2156 23.0955 38.5157C23.8138 37.8159 24.2174 36.8668 24.2174 35.8771C24.2174 34.8875 23.8138 33.9383 23.0954 33.2385L9.55261 20.0436L23.0956 6.84884C23.6312 6.32692 23.9959 5.66202 24.1436 4.9382C24.2914 4.21438 24.2155 3.46414 23.9256 2.78231C23.6358 2.10049 23.1449 1.5177 22.515 1.10762C21.8852 0.697533 21.1444 0.478424 20.3869 0.478268Z" fill="white"/>
</svg>
