<svg width="80" height="48" viewBox="0 0 80 48" fill="none" xmlns="http://www.w3.org/2000/svg">
<path d="M60 40L4.00003 40C1.60003 40 3.05176e-05 41.6 3.05176e-05 44C3.05176e-05 46.4 1.60003 48 4.00003 48L60 48C62.4 48 64 46.4 64 44C64 41.6 62.4 40 60 40ZM4.00003 28H44C46.4 28 48 26.4 48 24C48 21.6 46.4 20 44 20H4.00003C1.60003 20 3.05176e-05 21.6 3.05176e-05 24C3.05176e-05 26.4 1.60003 28 4.00003 28ZM4.00003 8.00001L28 8.00001C30.4 8.00001 32 6.40001 32 4.00001C32 1.60001 30.4 1.52588e-05 28 1.52588e-05L4.00003 1.52588e-05C1.60003 1.52588e-05 3.05176e-05 1.60001 3.05176e-05 4.00001C3.05176e-05 6.40001 1.60003 8.00001 4.00003 8.00001ZM76 48C78.4 48 80 46.4 80 44C80 41.6 78.4 40 76 40C73.6 40 72 41.6 72 44C72 46.4 73.6 48 76 48ZM60 28C62.4 28 64 26.4 64 24C64 21.6 62.4 20 60 20C57.6 20 56 21.6 56 24C56 26.4 57.6 28 60 28ZM44 8.00001C46.4 8.00001 48 6.40001 48 4.00001C48 1.60001 46.4 1.52588e-05 44 1.52588e-05C41.6 1.52588e-05 40 1.60001 40 4.00001C40 6.40001 41.6 8.00001 44 8.00001Z" fill="#EBEBEB"/>
</svg>
