<svg width="29" height="41" viewBox="0 0 29 41" fill="none" xmlns="http://www.w3.org/2000/svg">
<path d="M26.8862 23.1902L8.24875 39.3214C7.84012 39.678 7.35396 39.9611 6.81831 40.1542C6.28267 40.3474 5.70814 40.4468 5.12786 40.4468C4.54759 40.4468 3.97306 40.3474 3.43741 40.1542C2.90176 39.9611 2.4156 39.678 2.00697 39.3214C1.18828 38.6086 0.72876 37.6443 0.72876 36.6392C0.72876 35.6341 1.18828 34.6699 2.00697 33.957L17.5675 20.489L2.00697 7.02096C1.18828 6.30813 0.72876 5.34386 0.72876 4.33876C0.72876 3.33366 1.18828 2.36939 2.00697 1.65656C2.4177 1.30396 2.9048 1.02499 3.44036 0.835659C3.97591 0.646328 4.54937 0.550358 5.12786 0.553253C5.70635 0.550358 6.27982 0.646328 6.81537 0.835659C7.35092 1.02499 7.83802 1.30396 8.24875 1.65656L26.8862 17.7878C27.2982 18.1415 27.6252 18.5622 27.8483 19.0259C28.0715 19.4895 28.1864 19.9868 28.1864 20.489C28.1864 20.9912 28.0715 21.4885 27.8483 21.9521C27.6252 22.4158 27.2982 22.8365 26.8862 23.1902Z" fill="white"/>
</svg>
